<svg xmlns="http://www.w3.org/2000/svg" xmlns:xlink="http://www.w3.org/1999/xlink" version="1.1" x="0px" y="0px" viewBox="0 0 90 112.5" enable-background="new 0 0 90 90" xml:space="preserve"><path d="M38,55c4,0,7.6-1.4,10.5-3.7l17.1,17.1C66,68.8,66.5,69,67,69s1-0.2,1.4-0.6c0.8-0.8,0.8-2,0-2.8L51.4,48.5  C53.7,45.6,55,42,55,38c0-9.4-7.6-17-17-17s-17,7.6-17,17S28.7,55,38,55z M38,25c7.2,0,13,5.8,13,13s-5.8,13-13,13s-13-5.8-13-13  S30.9,25,38,25z"/><text x="0" y="105" fill="#000000" font-size="5px" font-weight="bold" font-family="'Helvetica Neue', Helvetica, Arial-Unicode, Arial, Sans-serif">Created by Matthew R. Miller</text><text x="0" y="110" fill="#000000" font-size="5px" font-weight="bold" font-family="'Helvetica Neue', Helvetica, Arial-Unicode, Arial, Sans-serif">from the Noun Project</text></svg>